# xmcd CD database file
#
# Track frame offsets:
#	182
#	14827
#	30867
#	45630
#	57480
#	71310
#	85100
#	97587
#	111062
#	123040
#	138632
#	153010
#	166290
#	179460
#
# Disc length: 2611 seconds
#
# Revision: 0
# Processed by: cddbd v1.4PL0 Copyright (c) Steve Scherf et al.
# Submitted via: Feurio! 1.65 - http://www.feurio.com
#
DISCID=a50a310e
DTITLE=Freddie "Fingers" Lee - Born To Rock
DYEAR=1991
DGENRE=Bluesrock
TTITLE0=Born To Rock
TTITLE1=Doing My Time
TTITLE2=Home Town Boogie
TTITLE3=Jump Skiddle And Bop
TTITLE4=The Fast Lane
TTITLE5=Upon The Tyne
TTITLE6=Dear Mam Bye Bye
TTITLE7=I Want My Baby Back
TTITLE8=When The Going Gets Rough
TTITLE9=Flim Flam Floosie
TTITLE10=Wildfire
TTITLE11=Big Fat Mama
TTITLE12=Sittin' On The Back Porch
TTITLE13=Times Are Getting Harder
EXTD=
EXTT0=
EXTT1=
EXTT2=
EXTT3=
EXTT4=
EXTT5=
EXTT6=
EXTT7=
EXTT8=
EXTT9=
EXTT10=
EXTT11=
EXTT12=
EXTT13=
PLAYORDER=
